<mxfile host="app.diagrams.net" modified="2023-05-15T14:51:28.637Z" agent="Mozilla/5.0 (Windows NT 10.0; Win64; x64) AppleWebKit/537.36 (KHTML, like Gecko) Chrome/113.0.0.0 Safari/537.36 Edg/113.0.1774.42" etag="dChtZozRrQAMBZcmn_N6" version="21.3.0" type="github">
  <diagram name="第 1 页" id="WrSXYvnxCf-qaMHbNdhH">
    <mxGraphModel dx="911" dy="511" grid="1" gridSize="10" guides="1" tooltips="1" connect="1" arrows="1" fold="1" page="1" pageScale="1" pageWidth="827" pageHeight="1169" math="0" shadow="0">
      <root>
        <mxCell id="0" />
        <mxCell id="1" parent="0" />
        <mxCell id="h79Zp10GCnNzZDn47hwa-1" value="alarmClass" style="shape=umlLifeline;perimeter=lifelinePerimeter;whiteSpace=wrap;html=1;container=1;dropTarget=0;collapsible=0;recursiveResize=0;outlineConnect=0;portConstraint=eastwest;newEdgeStyle={&quot;edgeStyle&quot;:&quot;elbowEdgeStyle&quot;,&quot;elbow&quot;:&quot;vertical&quot;,&quot;curved&quot;:0,&quot;rounded&quot;:0};" vertex="1" parent="1">
          <mxGeometry x="390" y="60" width="100" height="460" as="geometry" />
        </mxCell>
        <mxCell id="h79Zp10GCnNzZDn47hwa-4" value="mysqlDBClass" style="shape=umlLifeline;perimeter=lifelinePerimeter;whiteSpace=wrap;html=1;container=1;dropTarget=0;collapsible=0;recursiveResize=0;outlineConnect=0;portConstraint=eastwest;newEdgeStyle={&quot;edgeStyle&quot;:&quot;elbowEdgeStyle&quot;,&quot;elbow&quot;:&quot;vertical&quot;,&quot;curved&quot;:0,&quot;rounded&quot;:0};" vertex="1" parent="1">
          <mxGeometry x="240" y="60" width="100" height="460" as="geometry" />
        </mxCell>
        <mxCell id="h79Zp10GCnNzZDn47hwa-13" value="" style="html=1;points=[];perimeter=orthogonalPerimeter;outlineConnect=0;targetShapes=umlLifeline;portConstraint=eastwest;newEdgeStyle={&quot;edgeStyle&quot;:&quot;elbowEdgeStyle&quot;,&quot;elbow&quot;:&quot;vertical&quot;,&quot;curved&quot;:0,&quot;rounded&quot;:0};" vertex="1" parent="h79Zp10GCnNzZDn47hwa-4">
          <mxGeometry x="45" y="69.99999999999999" width="10" height="50" as="geometry" />
        </mxCell>
        <mxCell id="h79Zp10GCnNzZDn47hwa-24" value="" style="html=1;points=[];perimeter=orthogonalPerimeter;outlineConnect=0;targetShapes=umlLifeline;portConstraint=eastwest;newEdgeStyle={&quot;edgeStyle&quot;:&quot;elbowEdgeStyle&quot;,&quot;elbow&quot;:&quot;vertical&quot;,&quot;curved&quot;:0,&quot;rounded&quot;:0};" vertex="1" parent="h79Zp10GCnNzZDn47hwa-4">
          <mxGeometry x="45" y="370.14" width="10" height="50" as="geometry" />
        </mxCell>
        <mxCell id="h79Zp10GCnNzZDn47hwa-6" value="riskAnalysis" style="shape=umlLifeline;perimeter=lifelinePerimeter;whiteSpace=wrap;html=1;container=1;dropTarget=0;collapsible=0;recursiveResize=0;outlineConnect=0;portConstraint=eastwest;newEdgeStyle={&quot;edgeStyle&quot;:&quot;elbowEdgeStyle&quot;,&quot;elbow&quot;:&quot;vertical&quot;,&quot;curved&quot;:0,&quot;rounded&quot;:0};" vertex="1" parent="1">
          <mxGeometry x="60" y="60" width="105" height="460" as="geometry" />
        </mxCell>
        <mxCell id="h79Zp10GCnNzZDn47hwa-16" value="" style="html=1;points=[];perimeter=orthogonalPerimeter;outlineConnect=0;targetShapes=umlLifeline;portConstraint=eastwest;newEdgeStyle={&quot;edgeStyle&quot;:&quot;elbowEdgeStyle&quot;,&quot;elbow&quot;:&quot;vertical&quot;,&quot;curved&quot;:0,&quot;rounded&quot;:0};" vertex="1" parent="h79Zp10GCnNzZDn47hwa-6">
          <mxGeometry x="50" y="170" width="10" height="30" as="geometry" />
        </mxCell>
        <mxCell id="h79Zp10GCnNzZDn47hwa-17" value="3.dataPreprocessing" style="html=1;align=left;spacingLeft=2;endArrow=block;rounded=0;edgeStyle=orthogonalEdgeStyle;curved=0;rounded=0;" edge="1" target="h79Zp10GCnNzZDn47hwa-16" parent="h79Zp10GCnNzZDn47hwa-6">
          <mxGeometry relative="1" as="geometry">
            <mxPoint x="55" y="150" as="sourcePoint" />
            <Array as="points">
              <mxPoint x="85" y="180" />
            </Array>
          </mxGeometry>
        </mxCell>
        <mxCell id="h79Zp10GCnNzZDn47hwa-18" value="" style="html=1;points=[];perimeter=orthogonalPerimeter;outlineConnect=0;targetShapes=umlLifeline;portConstraint=eastwest;newEdgeStyle={&quot;edgeStyle&quot;:&quot;elbowEdgeStyle&quot;,&quot;elbow&quot;:&quot;vertical&quot;,&quot;curved&quot;:0,&quot;rounded&quot;:0};" vertex="1" parent="h79Zp10GCnNzZDn47hwa-6">
          <mxGeometry x="50" y="230" width="10" height="40" as="geometry" />
        </mxCell>
        <mxCell id="h79Zp10GCnNzZDn47hwa-19" value="4.identifyPicture()" style="html=1;align=left;spacingLeft=2;endArrow=block;rounded=0;edgeStyle=orthogonalEdgeStyle;curved=0;rounded=0;" edge="1" target="h79Zp10GCnNzZDn47hwa-18" parent="h79Zp10GCnNzZDn47hwa-6">
          <mxGeometry relative="1" as="geometry">
            <mxPoint x="55" y="210" as="sourcePoint" />
            <Array as="points">
              <mxPoint x="85" y="240" />
            </Array>
          </mxGeometry>
        </mxCell>
        <mxCell id="h79Zp10GCnNzZDn47hwa-14" value="1.getPicture()" style="html=1;verticalAlign=bottom;endArrow=block;edgeStyle=elbowEdgeStyle;elbow=vertical;curved=0;rounded=0;" edge="1" target="h79Zp10GCnNzZDn47hwa-13" parent="1" source="h79Zp10GCnNzZDn47hwa-6">
          <mxGeometry relative="1" as="geometry">
            <mxPoint x="180" y="160" as="sourcePoint" />
            <Array as="points">
              <mxPoint x="230" y="130" />
              <mxPoint x="160" y="160" />
            </Array>
          </mxGeometry>
        </mxCell>
        <mxCell id="h79Zp10GCnNzZDn47hwa-15" value="2.getPicture()&lt;br&gt;return" style="html=1;verticalAlign=bottom;endArrow=open;dashed=1;endSize=8;edgeStyle=elbowEdgeStyle;elbow=vertical;curved=0;rounded=0;" edge="1" source="h79Zp10GCnNzZDn47hwa-13" parent="1" target="h79Zp10GCnNzZDn47hwa-6">
          <mxGeometry relative="1" as="geometry">
            <mxPoint x="230" y="235.14" as="targetPoint" />
            <Array as="points">
              <mxPoint x="240" y="180" />
            </Array>
          </mxGeometry>
        </mxCell>
        <mxCell id="h79Zp10GCnNzZDn47hwa-20" value="if error" style="shape=umlFrame;whiteSpace=wrap;html=1;pointerEvents=0;" vertex="1" parent="1">
          <mxGeometry x="40" y="340" width="450" height="80" as="geometry" />
        </mxCell>
        <mxCell id="h79Zp10GCnNzZDn47hwa-21" value="" style="html=1;points=[];perimeter=orthogonalPerimeter;outlineConnect=0;targetShapes=umlLifeline;portConstraint=eastwest;newEdgeStyle={&quot;edgeStyle&quot;:&quot;elbowEdgeStyle&quot;,&quot;elbow&quot;:&quot;vertical&quot;,&quot;curved&quot;:0,&quot;rounded&quot;:0};" vertex="1" parent="1">
          <mxGeometry x="435" y="360" width="10" height="40" as="geometry" />
        </mxCell>
        <mxCell id="h79Zp10GCnNzZDn47hwa-22" value="5.insertQueue()" style="html=1;verticalAlign=bottom;endArrow=block;edgeStyle=elbowEdgeStyle;elbow=vertical;curved=0;rounded=0;" edge="1" target="h79Zp10GCnNzZDn47hwa-21" parent="1" source="h79Zp10GCnNzZDn47hwa-6">
          <mxGeometry relative="1" as="geometry">
            <mxPoint x="450" y="360" as="sourcePoint" />
            <Array as="points">
              <mxPoint x="360" y="360" />
            </Array>
          </mxGeometry>
        </mxCell>
        <mxCell id="h79Zp10GCnNzZDn47hwa-23" value="6.insertQueue()&lt;br&gt;return" style="html=1;verticalAlign=bottom;endArrow=open;dashed=1;endSize=8;edgeStyle=elbowEdgeStyle;elbow=vertical;curved=0;rounded=0;" edge="1" source="h79Zp10GCnNzZDn47hwa-21" parent="1" target="h79Zp10GCnNzZDn47hwa-6">
          <mxGeometry x="0.0013" relative="1" as="geometry">
            <mxPoint x="450" y="435" as="targetPoint" />
            <Array as="points">
              <mxPoint x="355" y="400" />
            </Array>
            <mxPoint as="offset" />
          </mxGeometry>
        </mxCell>
        <mxCell id="h79Zp10GCnNzZDn47hwa-26" value="8.insertData()&lt;br&gt;return" style="html=1;verticalAlign=bottom;endArrow=open;dashed=1;endSize=8;edgeStyle=elbowEdgeStyle;elbow=vertical;curved=0;rounded=0;" edge="1" source="h79Zp10GCnNzZDn47hwa-24" parent="1" target="h79Zp10GCnNzZDn47hwa-6">
          <mxGeometry x="-0.0121" y="-10" relative="1" as="geometry">
            <mxPoint x="255" y="505.14" as="targetPoint" />
            <Array as="points">
              <mxPoint x="240" y="480" />
            </Array>
            <mxPoint as="offset" />
          </mxGeometry>
        </mxCell>
        <mxCell id="h79Zp10GCnNzZDn47hwa-25" value="7.insertData()" style="html=1;verticalAlign=bottom;endArrow=block;edgeStyle=elbowEdgeStyle;elbow=vertical;curved=0;rounded=0;" edge="1" target="h79Zp10GCnNzZDn47hwa-24" parent="1" source="h79Zp10GCnNzZDn47hwa-6">
          <mxGeometry relative="1" as="geometry">
            <mxPoint x="255" y="430.14" as="sourcePoint" />
            <Array as="points">
              <mxPoint x="150" y="450" />
            </Array>
          </mxGeometry>
        </mxCell>
      </root>
    </mxGraphModel>
  </diagram>
</mxfile>
